HIERARCHY
ROOT Hips
{
  OFFSET 15.162 16.020 -254.327
  CHANNELS 6 Xposition Yposition Zposition Zrotation Xrotation Yrotation
  JOINT LeftUpLeg
  {
    OFFSET 5.870 -4.754 0.900
    CHANNELS 6 Xposition Yposition Zposition Zrotation Xrotation Yrotation
    JOINT LeftLeg
    {
      OFFSET -0.000 -44.440 0.000
      CHANNELS 6 Xposition Yposition Zposition Zrotation Xrotation Yrotation
      JOINT LeftFoot
      {
        OFFSET 0.000 -37.174 -0.000
        CHANNELS 6 Xposition Yposition Zposition Zrotation Xrotation Yrotation
        End Site
        {
          OFFSET -0.000 -7.819 4.514
        }
      }
    }
  }
  JOINT RightUpLeg
  {
    OFFSET -5.422 -5.888 2.213
    CHANNELS 6 Xposition Yposition Zposition Zrotation Xrotation Yrotation
    JOINT RightLeg
    {
      OFFSET -0.000 -45.311 0.000
      CHANNELS 6 Xposition Yposition Zposition Zrotation Xrotation Yrotation
      JOINT RightFoot
      {
        OFFSET -0.000 -36.999 -0.000
        CHANNELS 6 Xposition Yposition Zposition Zrotation Xrotation Yrotation
        End Site
        {
          OFFSET 0.000 -7.781 4.492
        }
      }
    }
  }
  JOINT Spine
  {
    OFFSET 0.000 6.405 -6.405
    CHANNELS 6 Xposition Yposition Zposition Zrotation Xrotation Yrotation
    JOINT LeftShoulder
    {
      OFFSET -0.000 38.217 0.000
      CHANNELS 6 Xposition Yposition Zposition Zrotation Xrotation Yrotation
      JOINT LeftArm
      {
        OFFSET 16.139 0.000 -0.000
        CHANNELS 6 Xposition Yposition Zposition Zrotation Xrotation Yrotation
        JOINT LeftForeArm
        {
          OFFSET 23.246 0.000 0.000
          CHANNELS 6 Xposition Yposition Zposition Zrotation Xrotation Yrotation
          JOINT LeftHand
          {
            OFFSET 23.070 -0.000 -0.000
            CHANNELS 6 Xposition Yposition Zposition Zrotation Xrotation Yrotation
            JOINT LeftHandThumb1
            {
            OFFSET 4.970 -0.620 3.390
            CHANNELS 6 Xposition Yposition Zposition Zrotation Xrotation Yrotation
              JOINT LeftHandThumb2
              {
              OFFSET 2.150 -0.000 0.000
              CHANNELS 6 Xposition Yposition Zposition Zrotation Xrotation Yrotation
                JOINT LeftHandThumb3
                {
                OFFSET 2.200 -0.000 0.000
                CHANNELS 6 Xposition Yposition Zposition Zrotation Xrotation Yrotation
                  JOINT LeftHandThumb4
                  {
                  OFFSET 1.700 -0.000 0.000
                  CHANNELS 6 Xposition Yposition Zposition Zrotation Xrotation Yrotation
                  }
                }
              }
            }
            JOINT LeftHandIndex1
            {
            OFFSET 8.730 0.680 2.070
            CHANNELS 6 Xposition Yposition Zposition Zrotation Xrotation Yrotation
              JOINT LeftHandIndex2
              {
              OFFSET 2.670 -0.000 0.000
              CHANNELS 6 Xposition Yposition Zposition Zrotation Xrotation Yrotation
                JOINT LeftHandIndex3
                {
                OFFSET 2.130 -0.000 0.000
                CHANNELS 6 Xposition Yposition Zposition Zrotation Xrotation Yrotation
                  JOINT LeftHandIndex4
                  {
                  OFFSET 1.800 -0.000 0.000
                  CHANNELS 6 Xposition Yposition Zposition Zrotation Xrotation Yrotation
                  }
                }
              }
            }
            JOINT LeftHandMiddle1
            {
            OFFSET 9.220 0.670 0.550
            CHANNELS 6 Xposition Yposition Zposition Zrotation Xrotation Yrotation
              JOINT LeftHandMiddle2
              {
              OFFSET 2.660 -0.000 0.000
              CHANNELS 6 Xposition Yposition Zposition Zrotation Xrotation Yrotation
                JOINT LeftHandMiddle3
                {
                OFFSET 2.280 -0.000 0.000
                CHANNELS 6 Xposition Yposition Zposition Zrotation Xrotation Yrotation
                  JOINT LeftHandMiddle4
                  {
                  OFFSET 1.500 -0.000 0.000
                  CHANNELS 6 Xposition Yposition Zposition Zrotation Xrotation Yrotation
                  }
                }
              }
            }
            JOINT LeftHandRing1
            {
            OFFSET 9.250 0.670 -1.130
            CHANNELS 6 Xposition Yposition Zposition Zrotation Xrotation Yrotation
              JOINT LeftHandRing2
              {
              OFFSET 2.470 -0.000 0.000
              CHANNELS 6 Xposition Yposition Zposition Zrotation Xrotation Yrotation
                JOINT LeftHandRing3
                {
                OFFSET 2.210 -0.000 0.000
                CHANNELS 6 Xposition Yposition Zposition Zrotation Xrotation Yrotation
                  JOINT LeftHandRing4
                  {
                  OFFSET 1.800 -0.000 0.000
                  CHANNELS 6 Xposition Yposition Zposition Zrotation Xrotation Yrotation
                  }
                }
              }
            }
            JOINT LeftHandPinky1
            {
            OFFSET 9.350 0.660 -2.720
            CHANNELS 6 Xposition Yposition Zposition Zrotation Xrotation Yrotation
              JOINT LeftHandPinky2
              {
              OFFSET 1.630 -0.000 0.000
              CHANNELS 6 Xposition Yposition Zposition Zrotation Xrotation Yrotation
                JOINT LeftHandPinky3
                {
                OFFSET 1.710 -0.000 0.000
                CHANNELS 6 Xposition Yposition Zposition Zrotation Xrotation Yrotation
                  JOINT LeftHandPinky4
                  {
                  OFFSET 1.800 -0.000 0.000
                  CHANNELS 6 Xposition Yposition Zposition Zrotation Xrotation Yrotation
                  }
                }
              }
            }
          }
        }
      }
    }
    JOINT RightShoulder
    {
      OFFSET -0.000 38.217 0.000
      CHANNELS 6 Xposition Yposition Zposition Zrotation Xrotation Yrotation
      JOINT RightArm
      {
        OFFSET -16.670 0.000 -0.000
        CHANNELS 6 Xposition Yposition Zposition Zrotation Xrotation Yrotation
        JOINT RightForeArm
        {
          OFFSET -23.539 0.000 0.000
          CHANNELS 6 Xposition Yposition Zposition Zrotation Xrotation Yrotation
          JOINT RightHand
          {
            OFFSET -22.268 0.000 -0.000
            CHANNELS 6 Xposition Yposition Zposition Zrotation Xrotation Yrotation
            JOINT RightHandThumb1
            {
            OFFSET -4.970 -0.620 3.390
            CHANNELS 6 Xposition Yposition Zposition Zrotation Xrotation Yrotation
              JOINT RightHandThumb2
              {
              OFFSET -2.150 0.000 0.000
              CHANNELS 6 Xposition Yposition Zposition Zrotation Xrotation Yrotation
                JOINT RightHandThumb3
                {
                OFFSET -2.200 0.000 0.000
                CHANNELS 6 Xposition Yposition Zposition Zrotation Xrotation Yrotation
                  JOINT RightHandThumb4
                  {
                  OFFSET -1.700 0.000 0.000
                  CHANNELS 6 Xposition Yposition Zposition Zrotation Xrotation Yrotation
                  }
                }
              }
            }
            JOINT RightHandIndex1
            {
            OFFSET -8.730 0.680 2.070
            CHANNELS 6 Xposition Yposition Zposition Zrotation Xrotation Yrotation
              JOINT RightHandIndex2
              {
              OFFSET -2.670 0.000 0.000
              CHANNELS 6 Xposition Yposition Zposition Zrotation Xrotation Yrotation
                JOINT RightHandIndex3
                {
                OFFSET -2.130 0.000 0.000
                CHANNELS 6 Xposition Yposition Zposition Zrotation Xrotation Yrotation
                  JOINT RightHandIndex4
                  {
                  OFFSET -1.800 0.000 0.000
                  CHANNELS 6 Xposition Yposition Zposition Zrotation Xrotation Yrotation
                  }
                }
              }
            }
            JOINT RightHandMiddle1
            {
            OFFSET -9.220 0.670 0.550
            CHANNELS 6 Xposition Yposition Zposition Zrotation Xrotation Yrotation
              JOINT RightHandMiddle2
              {
              OFFSET -2.660 0.000 0.000
              CHANNELS 6 Xposition Yposition Zposition Zrotation Xrotation Yrotation
                JOINT RightHandMiddle3
                {
                OFFSET -2.280 0.000 0.000
                CHANNELS 6 Xposition Yposition Zposition Zrotation Xrotation Yrotation
                  JOINT RightHandMiddle4
                  {
                  OFFSET -1.500 0.000 0.000
                  CHANNELS 6 Xposition Yposition Zposition Zrotation Xrotation Yrotation
                  }
                }
              }
            }
            JOINT RightHandRing1
            {
            OFFSET -9.250 0.670 -1.130
            CHANNELS 6 Xposition Yposition Zposition Zrotation Xrotation Yrotation
              JOINT RightHandRing2
              {
              OFFSET -2.470 0.000 0.000
              CHANNELS 6 Xposition Yposition Zposition Zrotation Xrotation Yrotation
                JOINT RightHandRing3
                {
                OFFSET -2.210 0.000 0.000
                CHANNELS 6 Xposition Yposition Zposition Zrotation Xrotation Yrotation
                  JOINT RightHandRing4
                  {
                  OFFSET -1.800 0.000 0.000
                  CHANNELS 6 Xposition Yposition Zposition Zrotation Xrotation Yrotation
                  }
                }
              }
            }
            JOINT RightHandPinky1
            {
            OFFSET -9.350 0.660 -2.720
            CHANNELS 6 Xposition Yposition Zposition Zrotation Xrotation Yrotation
              JOINT RightHandPinky2
              {
              OFFSET -1.630 0.000 0.000
              CHANNELS 6 Xposition Yposition Zposition Zrotation Xrotation Yrotation
                JOINT RightHandPinky3
                {
                OFFSET -1.710 0.000 0.000
                CHANNELS 6 Xposition Yposition Zposition Zrotation Xrotation Yrotation
                  JOINT RightHandPinky4
                  {
                  OFFSET -1.800 0.000 0.000
                  CHANNELS 6 Xposition Yposition Zposition Zrotation Xrotation Yrotation
                  }
                }
              }
            }
          }
        }
      }
    }
    JOINT Neck
    {
      OFFSET -0.000 38.217 0.000
      CHANNELS 6 Xposition Yposition Zposition Zrotation Xrotation Yrotation
      JOINT Head
      {
        OFFSET -0.000 19.438 -0.000
        CHANNELS 6 Xposition Yposition Zposition Zrotation Xrotation Yrotation
        End Site
        {
          OFFSET -0.000 0.078 -0.000
        }
      }
    }
  }
}
MOTION
Frames:	4
Frame Time:	0.0333333
38.8335 14.8386 -255.736 7.40482 9.3328 -13.4416 6.69143 -5.73775 0.867772 6.34611 -11.7557 7.0308 1.49012e-06 -44.85 4.76837e-05 -3.83831 10.1868 0.679824 -5.96046e-06 -38.6452 -2.38419e-05 -2.42472 -8.53536 -1.86176 -6.27135 -6.76425 2.41914 -16.425 -12.8579 2.25271 2.23517e-06 -43.6996 0 -9.18238 -8.87547 -1.42868 -3.72529e-06 -39.846 -2.38419e-05 5.20574 -24.6941 5.014 0 6.01491 -6.01497 1.88199 -6.71735 -2.187 5.96046e-06 38.2177 7.15256e-05 -45.9188 9.39151e-06 -2.59066 17.3703 5.96046e-06 -2.38419e-05 -10.3235 29.3857 18.1279 20.1673 2.38419e-05 7.15256e-05 -4.62335e-07 -5.74881e-06 -99.196 22.0489 1.19209e-05 1.49012e-06 -2.7504 -0.117488 14.9721 0.0062 0.0497 0.0339 -1.01738 0 0 0 0.0215 0 0 -1.01738 0 0 0.022 0 0 -1.01738 0 0 0.017 0 0 0 0 -0.0068 0.0873 0.0207 -1.01738 0 0 0 0.0267 0 -1.80867 0 0 0 0.0213 0 -2.03476 0 0 0 0.018 0 0 0 0 -0.0067 0.0922 0.0055 -1.01738 0 0 0 0.0266 0 -1.80867 0 0 0 0.0228 0 -2.03476 0 0 0 0.015 0 0 0 0 -0.0067 0.0925 -0.0113 -1.01738 0 0 0 0.0247 0 -1.80867 0 0 0 0.0221 0 -2.03476 0 0 0 0.018 0 0 0 0 -0.0066 0.0935 -0.0272 -1.01738 0 0 0 0.0163 0 -1.80867 0 0 0 0.0171 0 -2.03476 0 0 0 0.018 0 0 0 0 5.96046e-06 38.2177 7.15256e-05 29.8929 -8.53774e-07 2.25349 -19.9676 1.19209e-05 -4.76837e-05 48.656 16.7764 9.44236 -21.5707 -5.96046e-06 -4.76837e-05 -1.5058e-06 8.05771e-06 111.17 -22.9046 8.9407e-06 -1.19209e-05 -5.39165 -0.0175071 9.45927 -0.0062 0.0497 0.0339 0 0 0 0 0.0215 0 0 0 0 0 0.022 0 0 0 0 0 0.017 0 0 0 0 0.0068 0.0873 0.0207 0 0 0 0 0.0267 0 0 0 0 0 0.0213 0 0 0 0 0 0.018 0 0 0 0 0.0067 0.0922 0.0055 0 0 0 0 0.0266 0 0 0 0 0 0.0228 0 0 0 0 0 0.015 0 0 0 0 0.0067 0.0925 -0.0113 0 0 0 0 0.0247 0 0 0 0 0 0.0221 0 0 0 0 0 0.018 0 0 0 0 0.0066 0.0935 -0.0272 0 0 0 0 0.0163 0 0 0 0 0 0.0171 0 0 0 0 0 0.018 0 0 0 0 5.96046e-06 38.2177 7.15256e-05 11.5581 7.4814 -1.5253 1.19209e-05 17.0226 -4.76837e-05 8.32429e-06 -9.8184e-06 1.70755e-06 
38.704 14.8782 -255.7 7.55297 9.35848 -14.0913 6.65709 -5.74026 0.906134 6.40455 -11.5324 6.8944 0 -44.9674 2.38419e-05 -3.95241 9.95535 0.684348 -1.19209e-05 -38.6977 -2.38419e-05 -2.15493 -7.69884 -1.65287 -6.27412 -6.74346 2.41489 -16.5902 -13.1767 1.93112 2.23517e-06 -43.6533 -4.76837e-05 -8.51969 -8.87646 -1.32416 7.45058e-07 -39.8829 2.38419e-05 5.01181 -24.6687 4.82693 -1.49012e-06 6.00788 -6.00789 1.75328 -6.78023 -1.92617 8.9407e-06 38.2177 -2.38419e-05 -45.9375 1.10991e-05 -2.90145 17.3901 1.56462e-05 0 -10.1165 30.2635 16.857 20.2424 2.38419e-05 4.76837e-05 -7.20123e-05 -8.22156e-07 -99.4471 21.8955 -1.19209e-05 -5.02914e-06 -3.15495 -0.129652 14.5166 0.0062 0.0497 0.0339 0 0 0 0 0.0215 0 0 0 0 0 0.022 0 0 0 0 0 0.017 0 0 0 0 -0.0068 0.0873 0.0207 0 0 0 0 0.0267 0 0 0 0 0 0.0213 0 0 0 0 0 0.018 0 0 0 0 -0.0067 0.0922 0.0055 0 0 0 0 0.0266 0 0 0 0 0 0.0228 0 0 0 0 0 0.015 0 0 0 0 -0.0067 0.0925 -0.0113 0 0 0 0 0.0247 0 0 0 0 0 0.0221 0 0 0 0 0 0.018 0 0 0 0 -0.0066 0.0935 -0.0272 0 0 0 0 0.0163 0 0 0 0 0 0.0171 0 0 0 0 0 0.018 0 0 0 0 8.9407e-06 38.2177 -2.38419e-05 30.5762 -8.53773e-07 2.51337 -20.0731 -5.96046e-06 -4.76837e-05 48.3351 14.8749 8.09122 -21.3298 2.5332e-05 2.38419e-05 -1.57328e-06 8.22984e-06 111.645 -22.7391 -1.49012e-06 1.19209e-05 -2.40242 0.142475 9.52501 -0.0062 0.0497 0.0339 0 0 0 0 0.0215 0 0 0 0 0 0.022 0 0 0 0 0 0.017 0 0 0 0 0.0068 0.0873 0.0207 0 0 0 0 0.0267 0 0 0 0 0 0.0213 0 0 0 0 0 0.018 0 0 0 0 0.0067 0.0922 0.0055 0 0 0 0 0.0266 0 0 0 0 0 0.0228 0 0 0 0 0 0.015 0 0 0 0 0.0067 0.0925 -0.0113 0 0 0 0 0.0247 0 0 0 0 0 0.0221 0 0 0 0 0 0.018 0 0 0 0 0.0066 0.0935 -0.0272 0 0 0 0 0.0163 0 0 0 0 0 0.0171 0 0 0 0 0 0.018 0 0 0 0 8.9407e-06 38.2177 -2.38419e-05 11.5735 7.50899 -1.53299 5.96046e-06 16.9696 4.76837e-05 8.75118e-06 -8.96462e-06 0 
38.0296 15.081 -255.556 7.02709 9.51023 -15.7135 6.50381 -5.6297 1.10202 7.8201 -10.5365 5.87518 -1.37836e-05 -45.1666 0 -4.7769 9.26685 0.770982 -1.71363e-05 -37.0678 4.76837e-05 -2.47093 -9.84617 -1.94166 -6.08004 -6.79415 2.3195 -16.5263 -14.0576 0.197633 -1.04308e-05 -43.8487 -2.38419e-05 -5.6415 -8.59184 -0.845485 5.96046e-06 -39.6766 2.38419e-05 4.59013 -24.5035 4.40778 2.98023e-06 5.98779 -5.98779 2.2168 -6.91316 -2.31875 1.49012e-05 38.2177 2.38419e-05 -46.1439 1.96368e-05 -3.58177 17.4649 -2.3609e-05 -2.38419e-05 -8.55855 33.1906 11.1655 20.108 3.57628e-05 -7.15256e-05 7.1455e-05 -5.91324e-06 -99.4614 21.1272 -2.38419e-05 -5.96046e-06 -5.11128 -0.237144 11.6695 0.0062 0.0497 0.0339 0 0 0 0 0.0215 0 0 0 0 0 0.022 0 0 0 0 0 0.017 0 0 0 0 -0.0068 0.0873 0.0207 0 0 0 0 0.0267 0 0 0 0 0 0.0213 0 0 0 0 0 0.018 0 0 0 0 -0.0067 0.0922 0.0055 0 0 0 0 0.0266 0 0 0 0 0 0.0228 0 0 0 0 0 0.015 0 0 0 0 -0.0067 0.0925 -0.0113 0 0 0 0 0.0247 0 0 0 0 0 0.0221 0 0 0 0 0 0.018 0 0 0 0 -0.0066 0.0935 -0.0272 0 0 0 0 0.0163 0 0 0 0 0 0.0171 0 0 0 0 0 0.018 0 0 0 0 1.49012e-05 38.2177 2.38419e-05 29.5456 -7.68396e-06 3.15625 -19.8165 1.19209e-05 0 50.6626 9.50033 5.1485 -21.7755 1.49012e-06 4.76837e-05 -1.69165e-06 8.52209e-06 112.455 -21.9511 1.49012e-06 -1.19209e-05 3.13316 0.354882 9.37252 -0.0062 0.0497 0.0339 0 0 0 0 0.0215 0 0 0 0 0 0.022 0 0 0 0 0 0.017 0 0 0 0 0.0068 0.0873 0.0207 0 0 0 0 0.0267 0 0 0 0 0 0.0213 0 0 0 0 0 0.018 0 0 0 0 0.0067 0.0922 0.0055 0 0 0 0 0.0266 0 0 0 0 0 0.0228 0 0 0 0 0 0.015 0 0 0 0 0.0067 0.0925 -0.0113 0 0 0 0 0.0247 0 0 0 0 0 0.0221 0 0 0 0 0 0.018 0 0 0 0 0.0066 0.0935 -0.0272 0 0 0 0 0.0163 0 0 0 0 0 0.0171 0 0 0 0 0 0.018 0 0 0 0 1.49012e-05 38.2177 2.38419e-05 12.1289 8.09998 -1.73444 -1.49012e-05 16.9163 -2.38419e-05 5.54953e-06 -1.15259e-05 8.53774e-06 
37.7028 15.1325 -255.484 7.03955 9.52427 -16.595 6.47107 -5.62036 1.15941 8.1651 -10.0848 5.56849 -8.9407e-06 -45.1908 0 -5.01377 8.91246 0.778696 6.33299e-06 -36.6035 -7.15256e-05 -2.65773 -11.1929 -2.1248 -6.05835 -6.78861 2.29318 -16.6213 -14.486 -0.386831 -1.49012e-05 -43.9115 -4.76837e-05 -4.48546 -8.40362 -0.656842 0 -39.5754 4.76837e-05 4.47635 -24.4412 4.29237 0 5.98625 -5.98629 2.18276 -6.9721 -2.10872 0 38.2177 4.76837e-05 -46.1965 1.02453e-05 -4.0109 17.4606 -1.83471e-05 0 -7.41054 34.6752 8.36853 20.1972 4.76837e-05 4.76837e-05 8.44684e-05 -1.19397e-05 -100.874 21.2419 -3.57628e-05 1.78814e-05 -5.04401 -0.207816 11.2408 0.0062 0.0497 0.0339 0 0 0 0 0.0215 0 0 0 0 0 0.022 0 0 0 0 0 0.017 0 0 0 0 -0.0068 0.0873 0.0207 0 0 0 0 0.0267 0 0 0 0 0 0.0213 0 0 0 0 0 0.018 0 0 0 0 -0.0067 0.0922 0.0055 0 0 0 0 0.0266 0 0 0 0 0 0.0228 0 0 0 0 0 0.015 0 0 0 0 -0.0067 0.0925 -0.0113 0 0 0 0 0.0247 0 0 0 0 0 0.0221 0 0 0 0 0 0.018 0 0 0 0 -0.0066 0.0935 -0.0272 0 0 0 0 0.0163 0 0 0 0 0 0.0171 0 0 0 0 0 0.018 0 0 0 0 0 38.2177 4.76837e-05 29.9887 -8.53773e-07 3.52288 -19.8757 -5.96046e-06 -2.38419e-05 50.2768 7.8402 3.55966 -21.6045 8.9407e-06 2.38419e-05 1.18465e-05 8.81199e-06 113.263 -21.8798 1.49012e-06 1.19209e-05 4.24551 0.370614 9.45714 -0.0062 0.0497 0.0339 0 0 0 0 0.0215 0 0 0 0 0 0.022 0 0 0 0 0 0.017 0 0 0 0 0.0068 0.0873 0.0207 0 0 0 0 0.0267 0 0 0 0 0 0.0213 0 0 0 0 0 0.018 0 0 0 0 0.0067 0.0922 0.0055 0 0 0 0 0.0266 0 0 0 0 0 0.0228 0 0 0 0 0 0.015 0 0 0 0 0.0067 0.0925 -0.0113 0 0 0 0 0.0247 0 0 0 0 0 0.0221 0 0 0 0 0 0.018 0 0 0 0 0.0066 0.0935 -0.0272 0 0 0 0 0.0163 0 0 0 0 0 0.0171 0 0 0 0 0 0.018 0 0 0 0 0 38.2177 4.76837e-05 12.2811 8.18372 -1.77489 -1.49012e-05 16.9263 0 7.68396e-06 -1.23797e-05 -1.70755e-06 
